<?xml version="1.0" encoding="UTF-8"?>
<svg id="Layer_1" data-name="Layer 1" xmlns="http://www.w3.org/2000/svg" viewBox="0 0 45.6 13.45">
  <path d="M2.12,10.29L0,4.15h2.02l.84,2.77.34,1.24h.02c.1-.42.22-.83.34-1.24l.85-2.77h1.96l-2.12,6.14h-2.11Z" fill="#efeae3"/>
  <path d="M9.55,10.47c-.99,0-1.79-.31-2.38-.92-.6-.61-.89-1.39-.89-2.35s.29-1.7.88-2.32c.59-.62,1.35-.92,2.27-.92.84,0,1.54.26,2.1.77.74.67,1.1,1.67,1.08,2.99h-4.42c.06.42.21.75.44.99.23.24.54.35.94.35.5,0,.84-.2,1.02-.61h1.91c-.14.59-.49,1.08-1.03,1.45-.54.38-1.18.56-1.92.56ZM8.21,6.56h2.42c-.03-.37-.15-.66-.37-.88-.21-.22-.48-.32-.8-.32-.7,0-1.12.4-1.26,1.2Z" fill="#efeae3"/>
  <path d="M13.27,10.29v-6.14h1.87v.96h.04c.42-.7.98-1.06,1.68-1.06.18,0,.31.02.38.05v1.68h-.05c-.61-.09-1.09.02-1.44.32-.35.3-.53.78-.53,1.43v2.76h-1.96Z" fill="#efeae3"/>
  <path d="M17.44,10.29l2.84-4.5-2.6-4.08h2.42l1.45,2.5h.02l1.48-2.5h2.3l-2.54,4.06,2.84,4.52h-2.51l-1.61-2.9h-.02l-1.67,2.9h-2.41Z" fill="#efeae3"/>
  <path d="M28.56,10.47c-.99,0-1.79-.31-2.38-.92-.6-.61-.89-1.39-.89-2.35s.29-1.7.88-2.32c.59-.62,1.35-.92,2.27-.92.84,0,1.54.26,2.1.77.74.67,1.1,1.67,1.08,2.99h-4.42c.06.42.21.75.44.99.23.24.54.35.94.35.5,0,.84-.2,1.02-.61h1.91c-.14.59-.49,1.08-1.03,1.45-.54.38-1.18.56-1.92.56ZM27.22,6.56h2.42c-.03-.37-.15-.66-.37-.88-.21-.22-.48-.32-.8-.32-.7,0-1.12.4-1.26,1.2Z" fill="#efeae3"/>
  <path d="M37.66,9.56c-.6.62-1.39.92-2.37.92s-1.77-.31-2.38-.92-.91-1.39-.91-2.33.3-1.71.91-2.33c.61-.62,1.4-.92,2.38-.92s1.77.31,2.37.92c.6.62.91,1.39.91,2.33s-.3,1.71-.91,2.33ZM34.32,8.59c.22.34.54.5.96.5s.74-.17.97-.5.34-.79.34-1.36-.11-1.02-.34-1.36-.55-.51-.97-.51-.74.17-.96.5c-.22.34-.34.79-.34,1.37s.11,1.02.34,1.36Z" fill="#efeae3"/>
  <path d="M39.23,10.29v-6.14h1.88v.84h.04c.47-.68,1.1-1.02,1.9-1.02.66,0,1.19.21,1.57.64.38.43.57.99.57,1.69v4h-1.96v-3.6c0-.34-.08-.6-.25-.8-.16-.2-.4-.29-.71-.29s-.58.12-.78.36c-.2.24-.3.55-.3.94v3.4h-1.96Z" fill="#efeae3"/>
</svg>